<svg version="1.1" id="Layer_1" xmlns="http://www.w3.org/2000/svg" xmlns:xlink="http://www.w3.org/1999/xlink" x="0px" y="0px"
	 width="100%" viewBox="0 0 256 256" enable-background="new 0 0 256 256" xml:space="preserve">
<path fill="#FFFFFE" opacity="1.000000" stroke="none" 
	d="
M257.000000,52.000000 
	C257.000000,118.354225 257.000000,184.708450 256.531372,251.539154 
	C171.041855,252.010422 86.020927,252.005219 1.000000,252.000000 
	C1.000000,168.333328 1.000000,84.666656 1.000000,1.000000 
	C4.721147,1.000000 8.381398,1.000000 12.480138,1.372198 
	C9.391189,12.023845 4.587331,21.967249 4.772451,33.214737 
	C4.912058,41.696892 4.516004,50.220924 5.245853,58.649467 
	C5.795369,64.995453 7.870464,71.197380 9.051990,77.503616 
	C10.560246,85.553711 14.327796,91.950745 21.640852,96.284241 
	C20.386278,100.743881 19.184895,104.851105 17.858536,109.059914 
	C17.583504,109.383430 17.617905,109.571480 17.615973,110.109489 
	C17.284721,111.661354 17.174261,112.829376 16.917727,114.385338 
	C8.315104,164.996399 61.041645,211.164795 109.734306,196.050262 
	C116.628098,193.910385 123.919418,191.985535 128.389969,185.023438 
	C129.845612,185.062912 130.905228,185.068619 132.045685,185.419876 
	C133.221558,187.119553 134.047028,188.978531 135.461746,189.733887 
	C139.837296,192.070084 144.269409,194.534317 148.977539,195.975327 
	C178.076645,204.881577 210.286407,193.257431 228.553619,167.459961 
	C241.308670,149.446915 246.343460,129.799774 240.865372,107.612808 
	C240.114456,104.528740 239.350250,101.826424 238.961441,99.071701 
	C240.937012,97.240852 243.040375,95.709373 244.054321,93.643250 
	C249.913651,81.703819 253.342621,69.021240 255.065964,55.843063 
	C255.241516,54.500690 256.333344,53.278149 257.000000,52.000000 
z"/>
<path fill="#F6F5F9" opacity="1.000000" stroke="none" 
	d="
M220.000000,1.000000 
	C224.689560,1.000000 229.379105,1.000000 234.534073,1.442550 
	C235.886261,8.726851 236.142731,15.724280 237.786346,22.379107 
	C241.633972,37.957699 242.134354,53.373226 236.800766,68.595657 
	C235.137329,73.343246 232.098099,77.608788 229.444336,81.924301 
	C228.411591,81.908432 227.123795,81.822769 226.914841,82.256668 
	C225.430130,85.339645 224.166061,88.528877 222.556488,91.853058 
	C221.761993,92.958832 221.242706,93.895813 220.446716,95.010445 
	C217.371826,98.426880 214.573669,101.665680 211.453537,104.970337 
	C209.418411,106.351257 207.705246,107.666313 205.662460,109.082321 
	C202.897232,110.482811 200.461624,111.782356 197.645508,113.091248 
	C187.241119,117.448631 176.817642,117.285904 166.005737,115.607765 
	C163.930893,114.851929 162.131302,114.333946 160.071655,113.580185 
	C158.005753,112.276817 156.144104,111.291908 154.407669,110.121292 
	C152.083542,108.554466 149.863983,106.794968 146.930206,108.619095 
	C145.163040,107.495789 143.515106,106.271469 141.756409,106.083527 
	C134.113892,105.266869 126.447258,104.575485 118.771729,104.220940 
	C115.977356,104.091873 112.632515,104.182724 111.610657,108.105598 
	C107.832047,109.662643 104.370087,111.309189 100.538742,112.994034 
	C97.423149,113.970787 94.676941,114.909256 91.487564,115.870102 
	C83.372131,115.906303 75.699867,115.920120 67.819496,115.653534 
	C64.881348,114.529564 62.151310,113.686012 59.191040,112.576889 
	C57.012264,111.191200 55.063725,110.071068 52.909508,108.699585 
	C50.924046,107.269302 49.144268,106.090378 47.166481,104.623566 
	C44.327148,101.551781 41.685829,98.767883 38.910126,95.663010 
	C36.259693,90.472679 33.743645,85.603325 31.155962,80.595345 
	C30.567274,81.083702 29.847136,81.681114 28.976471,81.925964 
	C27.063999,75.742661 24.967175,69.987595 23.627748,64.061340 
	C22.072027,57.178097 20.111652,50.125740 20.234903,43.180649 
	C20.456121,30.714989 21.604824,18.187159 27.535557,6.719316 
	C28.416451,5.015991 28.530941,2.916311 29.000000,1.000000 
	C32.361347,1.000000 35.722691,1.000000 39.536880,1.378516 
	C39.717747,2.705232 39.607540,3.740863 39.149441,4.588470 
	C32.648991,16.615969 30.861284,29.672304 31.133392,43.053734 
	C31.201817,46.418594 31.365149,50.575172 35.889786,52.352272 
	C35.627331,54.827297 35.354183,56.912605 34.960434,59.429707 
	C34.887440,62.242138 34.935043,64.622780 34.902706,67.392036 
	C35.097427,69.551529 35.372093,71.322411 35.626678,73.469391 
	C35.790062,74.572235 35.973530,75.298981 36.128231,76.280823 
	C36.293655,76.793953 36.487843,77.051979 36.637802,77.299286 
	C36.593571,77.288574 36.577858,77.378227 36.596024,77.737541 
	C37.313896,79.938171 38.013603,81.779480 38.744156,83.951134 
	C39.610138,85.850975 40.445278,87.420471 41.362350,89.305939 
	C54.865574,110.331177 85.717499,118.868004 101.180466,105.931999 
	C98.878944,103.429131 96.581100,100.930252 94.283257,98.431374 
	C94.528366,98.085968 94.773483,97.740555 95.018600,97.395142 
	C96.971153,98.655495 99.101990,99.710670 100.838531,101.219604 
	C104.281982,104.211731 107.205742,103.986694 110.550423,99.814293 
	C107.253777,98.411018 104.241608,97.200218 101.294281,95.848076 
	C99.459572,95.006378 97.722923,93.950920 96.302628,92.740639 
	C99.104317,92.971497 101.545647,93.453117 104.284615,94.134476 
	C113.511292,97.786179 113.511292,97.786179 115.443092,94.558487 
	C112.440216,93.176666 109.483177,91.815933 106.288254,90.345741 
	C107.136017,89.998505 107.584274,89.814903 108.445801,89.660202 
	C114.137909,90.650627 120.103996,94.230469 123.406082,85.989197 
	C127.743889,85.239922 131.642212,84.487709 135.737366,84.009109 
	C136.669083,85.533104 137.618500,86.706757 138.098404,88.048340 
	C139.505280,91.981293 142.005249,91.900177 145.433456,90.778481 
	C148.492538,89.777565 151.804550,89.549744 154.905762,89.332191 
	C151.131653,91.303589 147.456772,92.923569 143.781876,94.543541 
	C143.966873,95.217438 144.151871,95.891335 144.336868,96.565231 
	C150.719177,98.375671 156.173599,91.682793 163.718552,93.475258 
	C158.343582,95.706978 153.930435,97.539337 149.424973,99.410034 
	C152.084839,104.122932 154.617599,104.303383 157.926239,101.573753 
	C159.854172,99.983215 162.248764,98.958313 164.433380,97.678909 
	C164.884506,98.218140 165.335617,98.757378 165.786743,99.296616 
	C162.928497,101.275238 160.070267,103.253860 156.913513,105.439133 
	C176.824951,117.981400 206.501938,109.714027 217.349274,89.825661 
	C218.928223,86.798141 220.221863,83.965614 221.704376,80.842987 
	C222.289047,78.704071 222.684830,76.855247 223.289902,74.665413 
	C223.680405,71.883629 223.861603,69.442871 224.155670,66.567825 
	C224.156570,63.753960 224.044632,61.374371 223.986084,58.597008 
	C224.005569,57.132648 223.971664,56.066055 224.305511,54.936668 
	C225.781982,51.411118 227.645065,47.996277 227.868561,44.477303 
	C228.826721,29.391253 226.404404,14.807591 220.000000,1.000000 
z"/>
<path fill="#FBFCFE" opacity="1.000000" stroke="none" 
	d="
M229.688660,82.094986 
	C232.098099,77.608788 235.137329,73.343246 236.800766,68.595657 
	C242.134354,53.373226 241.633972,37.957699 237.786346,22.379107 
	C236.142731,15.724280 235.886261,8.726851 234.999741,1.442550 
	C242.289108,1.000000 249.578201,1.000000 257.000000,1.000000 
	C257.000000,17.687359 257.000000,34.375019 257.000000,51.531342 
	C256.333344,53.278149 255.241516,54.500690 255.065964,55.843063 
	C253.342621,69.021240 249.913651,81.703819 244.054321,93.643250 
	C243.040375,95.709373 240.937012,97.240852 238.754517,98.827805 
	C237.298492,96.699013 236.424805,94.761688 235.441757,92.470245 
	C233.451157,88.775742 231.569916,85.435364 229.688660,82.094986 
z"/>
<path fill="#FBFBFE" opacity="1.000000" stroke="none" 
	d="
M28.533138,1.000000 
	C28.530941,2.916311 28.416451,5.015991 27.535557,6.719316 
	C21.604824,18.187159 20.456121,30.714989 20.234903,43.180649 
	C20.111652,50.125740 22.072027,57.178097 23.627748,64.061340 
	C24.967175,69.987595 27.063999,75.742661 28.907478,82.256195 
	C26.897606,86.887444 24.806196,90.835922 22.755127,94.821129 
	C22.795467,94.857864 22.812016,94.750008 22.577908,94.880424 
	C22.269083,95.350731 22.194365,95.690620 22.013866,96.003166 
	C21.908083,95.975822 21.694040,95.931816 21.694040,95.931816 
	C14.327796,91.950745 10.560246,85.553711 9.051990,77.503616 
	C7.870464,71.197380 5.795369,64.995453 5.245853,58.649467 
	C4.516004,50.220924 4.912058,41.696892 4.772451,33.214737 
	C4.587331,21.967249 9.391189,12.023845 12.959313,1.372198 
	C18.022093,1.000000 23.044184,1.000000 28.533138,1.000000 
z"/>
<path fill="#E5E5E5" opacity="1.000000" stroke="none" 
	d="
M1.000000,252.499969 
	C86.020927,252.005219 171.041855,252.010422 256.531372,252.007812 
	C257.000000,253.663528 257.000000,255.327042 257.000000,256.992920 
	C171.666672,256.995300 86.333336,256.995300 1.000000,256.993835 
	C1.000000,255.661575 1.000000,254.330750 1.000000,252.499969 
z"/>
<path fill="#8D2406" opacity="1.000000" stroke="none" 
	d="
M200.000000,0.999999 
	C202.700623,1.000000 205.401260,1.000000 208.533691,1.399647 
	C211.884460,11.121884 212.807556,20.566149 210.250549,30.134224 
	C209.205444,30.045683 208.606384,30.018297 207.949219,29.637459 
	C205.775162,28.168131 203.663666,26.096090 201.542618,26.086279 
	C183.068115,26.000818 164.589294,26.165808 146.118851,26.576143 
	C143.039688,26.644550 139.994843,28.257774 136.670395,28.974792 
	C135.882904,27.863724 135.359146,26.935011 134.808502,25.635815 
	C133.348007,19.449003 131.914398,13.632673 130.369354,7.364223 
	C140.406540,8.198606 147.870880,11.666101 153.753250,17.905010 
	C156.561813,20.883812 158.842377,21.654675 162.407166,19.017872 
	C170.270905,18.314152 177.743622,17.637157 185.212036,16.915388 
	C186.613937,16.779903 188.657562,16.969301 189.283005,16.151079 
	C193.037216,11.239744 196.463715,6.077908 200.000000,0.999999 
z"/>
<path fill="#8D2406" opacity="1.000000" stroke="none" 
	d="
M50.000000,1.000000 
	C52.700630,1.000000 55.401260,1.000000 58.471012,1.347004 
	C62.122162,6.055901 65.287468,10.514294 68.762085,14.716956 
	C69.721329,15.877197 71.558418,16.809486 73.067352,16.932755 
	C80.259720,17.520309 87.477806,17.793032 94.944763,18.421751 
	C97.391312,19.615973 99.579842,20.566198 101.880226,21.564989 
	C108.826355,13.787590 116.885612,8.010092 129.312027,7.645701 
	C127.445168,14.692411 125.813942,20.849691 124.001663,27.187019 
	C123.570168,27.587000 123.319748,27.806932 122.673370,27.976078 
	C117.095093,26.951639 111.930061,25.264610 106.727180,25.138418 
	C91.270447,24.763521 75.794022,24.806108 60.337383,25.182276 
	C57.527714,25.250654 54.775135,27.665005 51.659813,29.000423 
	C50.259586,29.662518 49.195747,30.320551 48.096718,30.550156 
	C46.205078,20.247900 47.182125,10.562683 50.000000,1.000000 
z"/>
<path fill="#E4E3F8" opacity="1.000000" stroke="none" 
	d="
M124.182724,27.006971 
	C125.813942,20.849691 127.445168,14.692411 129.312027,7.645701 
	C116.885612,8.010092 108.826355,13.787590 101.880226,21.564989 
	C99.579842,20.566198 97.391312,19.615973 95.281631,18.255692 
	C101.908600,13.938991 99.902657,6.660864 102.000000,1.000000 
	C119.020897,1.000000 136.041794,1.000000 153.537140,1.384955 
	C156.679306,7.522975 159.346985,13.276039 162.014679,19.029104 
	C158.842377,21.654675 156.561813,20.883812 153.753250,17.905010 
	C147.870880,11.666101 140.406540,8.198606 130.369354,7.364223 
	C131.914398,13.632673 133.348007,19.449003 134.434296,25.642010 
	C130.785568,26.348116 127.484146,26.677544 124.182724,27.006971 
z"/>
<path fill="#F2F0FA" opacity="1.000000" stroke="none" 
	d="
M210.696594,30.195374 
	C212.807556,20.566149 211.884460,11.121884 208.982758,1.399647 
	C212.361282,1.000000 215.722580,1.000000 219.541931,1.000000 
	C226.404404,14.807591 228.826721,29.391253 227.868561,44.477303 
	C227.645065,47.996277 225.781982,51.411118 224.138428,54.702087 
	C223.280609,53.634029 222.957626,52.737751 222.597229,51.464699 
	C221.714676,49.059998 220.869507,47.032063 220.010635,44.670612 
	C219.339142,43.215008 218.681351,42.092918 217.985626,40.659134 
	C217.155670,39.185699 216.363617,38.023956 215.444916,36.556145 
	C214.319275,35.134228 213.320297,34.018383 212.230835,32.648575 
	C211.659119,31.661537 211.177856,30.928455 210.696594,30.195374 
z"/>
<path fill="#E9E9FC" opacity="1.000000" stroke="none" 
	d="
M162.407166,19.017872 
	C159.346985,13.276039 156.679306,7.522975 154.005798,1.384955 
	C169.020889,1.000000 184.041794,1.000000 199.531342,0.999999 
	C196.463715,6.077908 193.037216,11.239744 189.283005,16.151079 
	C188.657562,16.969301 186.613937,16.779903 185.212036,16.915388 
	C177.743622,17.637157 170.270905,18.314152 162.407166,19.017872 
z"/>
<path fill="#F2F0FA" opacity="1.000000" stroke="none" 
	d="
M49.545891,1.000000 
	C47.182125,10.562683 46.205078,20.247900 47.887749,30.720900 
	C47.640350,31.484209 47.566742,31.648344 47.217876,31.948305 
	C45.720459,33.723259 44.498291,35.362385 43.019699,37.220352 
	C42.127556,38.610786 41.491844,39.782383 40.583183,41.132641 
	C39.851562,42.503193 39.392891,43.695084 38.662781,45.137138 
	C37.712040,47.537090 37.032738,49.686886 36.234364,51.866314 
	C36.115292,51.895950 35.879089,51.962555 35.879089,51.962555 
	C31.365149,50.575172 31.201817,46.418594 31.133392,43.053734 
	C30.861284,29.672304 32.648991,16.615969 39.149441,4.588470 
	C39.607540,3.740863 39.717747,2.705232 39.994858,1.378516 
	C43.030594,1.000000 46.061188,1.000000 49.545891,1.000000 
z"/>
<path fill="#E9E9FC" opacity="1.000000" stroke="none" 
	d="
M101.531342,1.000000 
	C99.902657,6.660864 101.908600,13.938991 95.023621,18.011696 
	C87.477806,17.793032 80.259720,17.520309 73.067352,16.932755 
	C71.558418,16.809486 69.721329,15.877197 68.762085,14.716956 
	C65.287468,10.514294 62.122162,6.055901 58.920067,1.347004 
	C73.020897,1.000000 87.041786,1.000000 101.531342,1.000000 
z"/>
<path fill="#F89806" opacity="1.000000" stroke="none" 
	d="
M240.852097,107.994560 
	C246.343460,129.799774 241.308670,149.446915 228.553619,167.459961 
	C210.286407,193.257431 178.076645,204.881577 148.977539,195.975327 
	C144.269409,194.534317 139.837296,192.070084 135.461746,189.733887 
	C134.047028,188.978531 133.221558,187.119553 132.295990,185.126740 
	C137.311096,182.664139 142.156784,180.840195 147.278473,179.007324 
	C147.922592,178.993729 148.290726,178.989059 148.891571,179.278870 
	C168.794159,188.120392 187.125580,185.185715 204.707672,173.041153 
	C208.667557,169.427322 212.313568,165.902832 216.214417,162.219391 
	C218.357529,159.115616 220.245789,156.170776 222.408752,152.997711 
	C223.431808,150.513885 224.180145,148.258316 225.062866,145.718384 
	C225.534454,144.725555 225.871658,144.017075 226.491791,143.082855 
	C227.192627,141.237732 227.610550,139.618378 228.160553,137.779388 
	C228.337784,137.226074 228.382919,136.892395 228.612335,136.197144 
	C228.916138,134.219315 229.035660,132.603073 229.261337,130.640686 
	C229.422073,129.573212 229.476669,128.851852 229.653366,127.805527 
	C229.740356,126.328506 229.705246,125.176460 229.740967,123.687500 
	C229.610138,122.224075 229.408478,121.097565 229.232025,119.556946 
	C229.095276,117.773224 228.933304,116.403603 228.803772,114.692245 
	C228.266296,112.882713 227.696381,111.414925 227.531067,109.962868 
	C232.241150,109.317253 236.546616,108.655907 240.852097,107.994560 
z"/>
<path fill="#F89806" opacity="1.000000" stroke="none" 
	d="
M127.993935,184.989685 
	C123.919418,191.985535 116.628098,193.910385 109.734306,196.050262 
	C61.041645,211.164795 8.315104,164.996399 17.368635,114.386116 
	C21.948927,114.330513 25.932234,114.662064 29.950333,115.369019 
	C29.996054,116.496834 30.006983,117.249268 29.933254,118.385452 
	C29.800884,119.814140 29.753172,120.859077 29.537569,122.179291 
	C29.399862,123.303314 29.430050,124.152039 29.363876,125.329163 
	C29.438681,126.766724 29.609846,127.875893 29.743547,129.365189 
	C29.815308,130.497574 29.924528,131.249817 29.988918,132.353729 
	C30.163137,133.844406 30.382189,134.983429 30.631298,136.514252 
	C30.832436,137.939224 31.003515,138.972412 31.162367,140.294128 
	C31.478601,141.055862 31.807064,141.529068 32.124443,142.349365 
	C32.462597,143.799545 32.811829,144.902634 33.189552,146.352356 
	C35.073273,149.944229 36.928505,153.189499 38.865486,156.741882 
	C40.331314,158.806137 41.715393,160.563232 43.252296,162.648727 
	C47.120888,166.366241 50.836658,169.755356 54.770378,173.432098 
	C57.620487,175.354248 60.095341,177.355820 62.910866,178.562500 
	C78.700516,185.329651 94.621719,187.258072 110.965958,179.091003 
	C111.539505,179.036316 111.769547,179.021362 112.207222,179.286484 
	C117.607880,181.374268 122.800903,183.181976 127.993935,184.989685 
z"/>
<path fill="#F28F02" opacity="1.000000" stroke="none" 
	d="
M29.915543,114.993622 
	C25.932234,114.662064 21.948927,114.330513 17.514709,113.998177 
	C17.174261,112.829376 17.284721,111.661354 17.660091,109.986717 
	C17.976795,109.309799 17.996298,109.135872 17.983511,108.958321 
	C19.184895,104.851105 20.386278,100.743881 21.640852,96.284241 
	C21.694040,95.931816 21.908083,95.975822 22.217121,95.845413 
	C22.621445,95.393341 22.716730,95.071678 22.812016,94.750008 
	C22.812016,94.750008 22.795467,94.857864 23.195995,94.888603 
	C27.750467,95.996155 31.904413,97.072968 35.935127,98.461250 
	C34.911175,100.857506 34.010460,102.942284 32.944244,105.326500 
	C32.303284,107.103149 31.827824,108.580360 31.234142,110.427429 
	C30.972977,111.820625 30.830029,112.843971 30.518860,114.024429 
	C30.209883,114.454536 30.064850,114.725227 29.915543,114.993622 
z"/>
<path fill="#F28F02" opacity="1.000000" stroke="none" 
	d="
M240.865372,107.612808 
	C236.546616,108.655907 232.241150,109.317253 227.462341,109.993690 
	C226.989014,110.008781 226.850693,110.067245 226.911102,109.703690 
	C226.696716,108.201889 226.421921,107.063637 226.090775,105.565674 
	C224.264084,101.748230 222.493759,98.290512 220.723419,94.832794 
	C221.242706,93.895813 221.761993,92.958832 222.746216,92.220070 
	C227.324463,92.553650 231.437790,92.689011 235.551102,92.824371 
	C236.424805,94.761688 237.298492,96.699013 238.379120,98.880219 
	C239.350250,101.826424 240.114456,104.528740 240.865372,107.612808 
z"/>
<path fill="#F28F02" opacity="1.000000" stroke="none" 
	d="
M128.389969,185.023438 
	C122.800903,183.181976 117.607880,181.374268 112.501038,178.988861 
	C113.061737,178.284470 113.532806,178.062439 114.011261,178.045166 
	C123.901154,177.688385 133.790695,177.289230 143.684128,177.109482 
	C144.778336,177.089600 145.895782,178.349762 147.002457,179.016266 
	C142.156784,180.840195 137.311096,182.664139 132.215118,184.781204 
	C130.905228,185.068619 129.845612,185.062912 128.389969,185.023438 
z"/>
<path fill="#F89806" opacity="1.000000" stroke="none" 
	d="
M17.858536,109.059914 
	C17.996298,109.135872 17.976795,109.309799 17.880882,109.602875 
	C17.617905,109.571480 17.583504,109.383430 17.858536,109.059914 
z"/>
<path fill="#F59607" opacity="1.000000" stroke="none" 
	d="
M217.063950,90.020660 
	C206.501938,109.714027 176.824951,117.981400 156.913513,105.439133 
	C160.070267,103.253860 162.928497,101.275238 165.786743,99.296616 
	C165.335617,98.757378 164.884506,98.218140 164.433380,97.678909 
	C162.248764,98.958313 159.854172,99.983215 157.926239,101.573753 
	C154.617599,104.303383 152.084839,104.122932 149.424973,99.410034 
	C153.930435,97.539337 158.343582,95.706978 163.718552,93.475258 
	C156.173599,91.682793 150.719177,98.375671 144.336868,96.565231 
	C144.151871,95.891335 143.966873,95.217438 143.781876,94.543541 
	C147.456772,92.923569 151.131653,91.303589 154.949097,89.011230 
	C159.486633,85.961723 163.853333,87.212135 168.479935,87.789780 
	C175.037064,88.608459 181.763138,88.073906 188.291016,88.450661 
	C184.965210,91.608055 181.765411,94.432465 178.199722,97.579842 
	C183.798950,99.604301 186.525970,95.890228 188.942291,93.709595 
	C193.044449,95.410713 196.680313,96.918465 200.780548,98.618790 
	C200.874359,96.747559 201.026855,96.224632 200.886368,96.128090 
	C198.926559,94.781303 196.926682,93.492828 195.121445,91.825195 
	C196.955826,90.973907 198.594116,90.118996 200.256897,90.068436 
	C205.854553,89.898216 211.460922,90.014175 217.063950,90.020660 
z"/>
<path fill="#F59404" opacity="1.000000" stroke="none" 
	d="
M95.942268,92.991394 
	C97.722923,93.950920 99.459572,95.006378 101.294281,95.848076 
	C104.241608,97.200218 107.253777,98.411018 110.550423,99.814293 
	C107.205742,103.986694 104.281982,104.211731 100.838531,101.219604 
	C99.101990,99.710670 96.971153,98.655495 95.018600,97.395142 
	C94.773483,97.740555 94.528366,98.085968 94.283257,98.431374 
	C96.581100,100.930252 98.878944,103.429131 101.180466,105.931999 
	C85.717499,118.868004 54.865574,110.331177 41.728905,89.247841 
	C50.332378,89.401741 58.651230,89.929703 66.835648,90.635773 
	C66.701210,90.813889 66.280136,90.960304 66.028336,91.033760 
	C65.525398,91.340187 65.274269,91.573166 64.690536,91.949600 
	C62.227997,93.420616 60.098049,94.748161 57.178707,96.567719 
	C63.263660,99.565384 66.199791,95.637688 69.208862,93.488281 
	C72.635284,95.508232 75.890785,97.427422 79.146286,99.346619 
	C79.648972,98.694626 80.151657,98.042641 80.654343,97.390656 
	C78.961021,95.893906 77.151115,94.507584 75.603027,92.873268 
	C73.530327,90.685150 68.433205,89.786919 72.318878,85.143570 
	C80.107941,85.871140 87.515884,86.436310 94.913223,87.335526 
	C94.819374,89.100647 94.736115,90.531723 94.786049,92.269531 
	C95.289574,92.729988 95.659904,92.883720 96.007217,93.027878 
	C95.984207,93.018311 95.942268,92.991394 95.942268,92.991394 
z"/>
<path fill="#E27E02" opacity="1.000000" stroke="none" 
	d="
M224.042816,67.002106 
	C223.861603,69.442871 223.680405,71.883629 222.860916,74.654022 
	C213.176117,73.962029 204.087311,72.131935 195.102692,76.488091 
	C194.254044,76.652924 193.619644,76.720390 192.910110,76.448624 
	C190.907074,75.678452 188.986649,74.916351 187.049988,74.872498 
	C177.389511,74.653740 167.724289,74.656662 158.061676,74.515976 
	C151.293457,74.417435 144.522781,74.039635 137.762558,74.194420 
	C136.304642,74.227806 134.886810,76.011284 133.288696,76.611427 
	C132.793427,73.823456 132.459976,71.412674 132.532440,68.940887 
	C135.527786,68.586792 138.110443,68.186745 140.708023,68.021347 
	C147.568924,67.584488 154.436295,67.249352 161.650665,66.954117 
	C165.301361,67.938202 168.564041,69.122520 171.925873,69.583374 
	C173.006622,69.731529 174.348907,67.971634 175.963165,67.042770 
	C183.963242,66.968056 191.571732,66.935226 199.557037,66.857559 
	C202.596054,66.105591 205.258240,65.398460 208.127609,65.036430 
	C213.570801,65.921722 218.806808,66.461914 224.042816,67.002106 
z"/>
<path fill="#E78302" opacity="1.000000" stroke="none" 
	d="
M36.156994,76.025726 
	C35.973530,75.298981 35.790062,74.572235 36.075974,73.436737 
	C39.823120,72.685425 43.098076,72.083054 46.379181,72.047455 
	C57.678322,71.924835 68.980949,72.084129 80.278564,71.904320 
	C81.863129,71.879089 83.427116,70.561905 85.404839,69.779610 
	C87.170860,69.721710 88.532677,69.726944 90.114548,70.073288 
	C92.675880,70.943024 95.000000,71.823875 97.361412,71.938866 
	C107.197166,72.417816 117.044159,72.666214 126.920952,73.358124 
	C126.431389,75.520874 125.907898,77.324669 124.938492,79.086395 
	C121.061684,78.696533 117.625763,78.016937 114.200897,78.068672 
	C106.624153,78.183128 99.055145,78.735283 91.478706,78.971809 
	C86.773666,79.118683 82.060799,79.014481 77.275543,78.647644 
	C72.176399,77.863197 67.153145,77.454071 61.706627,76.985077 
	C53.048191,77.076218 44.813023,77.227226 36.577858,77.378227 
	C36.577858,77.378227 36.593571,77.288574 36.674503,77.045952 
	C36.555954,76.544128 36.356476,76.284927 36.156994,76.025726 
z"/>
<path fill="#FBFBFE" opacity="1.000000" stroke="none" 
	d="
M111.927299,108.195099 
	C112.632515,104.182724 115.977356,104.091873 118.771729,104.220940 
	C126.447258,104.575485 134.113892,105.266869 141.756409,106.083527 
	C143.515106,106.271469 145.163040,107.495789 146.768097,108.911209 
	C145.025787,111.365746 143.377335,113.152252 141.542191,115.035904 
	C141.137848,115.321289 140.974442,115.548546 140.600037,115.978386 
	C139.552917,117.090858 138.770996,118.039764 137.737854,119.162567 
	C136.996292,120.231705 136.505966,121.126923 135.739853,122.224991 
	C134.932968,123.937073 134.401855,125.446304 133.624268,127.162277 
	C132.929413,128.576828 132.481064,129.784622 131.892990,131.282562 
	C131.512878,132.380386 131.272491,133.188080 130.897827,134.288330 
	C130.512756,135.386551 130.261963,136.192200 129.917175,137.160553 
	C129.547058,137.215164 129.270920,137.107071 128.978180,136.705215 
	C128.666763,135.936386 128.371979,135.461304 128.067032,134.624512 
	C127.744804,133.161453 127.432724,132.060135 127.088821,130.630630 
	C127.012680,129.864197 126.968361,129.425934 126.907333,128.657898 
	C126.272224,127.205383 125.653816,126.082634 125.002136,124.630295 
	C124.324043,123.189529 123.679237,122.078331 122.917068,120.671661 
	C121.904221,119.232269 121.008743,118.088364 119.977570,116.671860 
	C118.967346,115.565811 118.092827,114.732368 117.038437,113.620636 
	C115.214806,111.626595 113.571053,109.910843 111.927299,108.195099 
z"/>
<path fill="#F08D05" opacity="1.000000" stroke="none" 
	d="
M77.351440,79.022972 
	C82.060799,79.014481 86.773666,79.118683 91.478706,78.971809 
	C99.055145,78.735283 106.624153,78.183128 114.200897,78.068672 
	C117.625763,78.016937 121.061684,78.696533 124.894005,79.452705 
	C124.519142,81.902802 123.742867,83.944534 122.966583,85.986259 
	C120.103996,94.230469 114.137909,90.650627 108.360107,89.340698 
	C103.548714,88.328690 99.236267,87.665085 94.923828,87.001480 
	C87.515884,86.436310 80.107941,85.871140 72.401566,84.816772 
	C73.852570,82.559380 75.602005,80.791176 77.351440,79.022972 
z"/>
<path fill="#F5D7A8" opacity="1.000000" stroke="none" 
	d="
M120.113266,116.944466 
	C121.008743,118.088364 121.904221,119.232269 122.620255,120.972656 
	C121.633492,121.711876 120.826126,121.979553 120.018845,121.979294 
	C89.914375,121.969582 59.809921,121.935112 29.705462,121.904007 
	C29.753172,120.859077 29.800884,119.814140 30.400337,118.385056 
	C41.712845,118.000702 52.475025,118.085739 63.232864,117.908142 
	C64.841537,117.881584 66.429863,116.622719 68.027603,115.933929 
	C75.699867,115.920120 83.372131,115.906303 91.587570,116.281990 
	C101.458244,116.762482 110.785759,116.853477 120.113266,116.944466 
z"/>
<path fill="#F6D5A2" opacity="1.000000" stroke="none" 
	d="
M137.989075,118.988663 
	C138.770996,118.039764 139.552917,117.090858 140.892731,116.306938 
	C149.727402,116.263153 158.004181,116.054382 166.280960,115.845612 
	C176.817642,117.285904 187.241119,117.448631 197.735016,113.479660 
	C199.694611,114.239456 201.180038,114.929985 202.674362,114.949799 
	C211.372208,115.065117 220.072113,115.022942 228.771332,115.033989 
	C228.933304,116.403603 229.095276,117.773224 228.744186,119.566696 
	C217.155273,119.993820 206.079422,119.998985 195.003571,119.999901 
	C177.720825,120.001335 160.437943,120.028374 143.155502,119.955513 
	C141.432037,119.948242 139.711151,119.325676 137.989075,118.988663 
z"/>
<path fill="#F08D05" opacity="1.000000" stroke="none" 
	d="
M188.417023,88.117676 
	C181.763138,88.073906 175.037064,88.608459 168.479935,87.789780 
	C163.853333,87.212135 159.486633,85.961723 155.048309,88.659805 
	C151.804550,89.549744 148.492538,89.777565 145.433456,90.778481 
	C142.005249,91.900177 139.505280,91.981293 138.098404,88.048340 
	C137.618500,86.706757 136.669083,85.533104 135.675659,83.718765 
	C135.355453,82.768143 135.293793,82.381485 135.667664,81.995438 
	C144.919022,81.669548 153.733597,81.301086 162.551361,81.039024 
	C165.691360,80.945702 168.850876,81.301079 171.980011,81.106476 
	C175.444000,80.891045 178.883408,80.280304 182.667236,79.896530 
	C184.806320,82.673447 186.611679,85.395554 188.417023,88.117676 
z"/>
<path fill="#E27E02" opacity="1.000000" stroke="none" 
	d="
M85.000633,69.842751 
	C83.427116,70.561905 81.863129,71.879089 80.278564,71.904320 
	C68.980949,72.084129 57.678322,71.924835 46.379181,72.047455 
	C43.098076,72.083054 39.823120,72.685425 36.096050,73.060638 
	C35.372093,71.322411 35.097427,69.551529 35.317406,67.339005 
	C41.014709,66.184830 46.217365,65.472282 51.757446,64.853989 
	C54.920803,65.580200 57.746742,66.212173 61.024994,66.897156 
	C68.811958,66.974632 76.146614,66.999107 83.545593,67.352142 
	C84.073486,68.401390 84.537064,69.122070 85.000633,69.842751 
z"/>
<path fill="#F28F02" opacity="1.000000" stroke="none" 
	d="
M217.349274,89.825661 
	C211.460922,90.014175 205.854553,89.898216 200.256897,90.068436 
	C198.594116,90.118996 196.955826,90.973907 194.807648,91.681244 
	C188.707397,86.812744 188.835358,85.503227 195.947357,79.815041 
	C204.769928,80.305763 213.142731,80.719429 221.515503,81.133095 
	C220.221863,83.965614 218.928223,86.798141 217.349274,89.825661 
z"/>
<path fill="#F28F02" opacity="1.000000" stroke="none" 
	d="
M66.970078,90.457664 
	C58.651230,89.929703 50.332378,89.401741 41.646973,88.931877 
	C40.445278,87.420471 39.610138,85.850975 38.963753,83.576782 
	C41.792816,82.247971 44.414085,81.206108 47.077293,81.084763 
	C53.029789,80.813576 59.003189,81.001228 65.182068,81.283035 
	C69.884850,84.928513 70.183006,86.613159 66.970078,90.457664 
z"/>
<path fill="#EDE8EE" opacity="1.000000" stroke="none" 
	d="
M135.232132,81.994827 
	C135.293793,82.381485 135.355453,82.768143 135.478821,83.445145 
	C131.642212,84.487709 127.743889,85.239922 123.406082,85.989197 
	C123.742867,83.944534 124.519142,81.902802 125.339920,79.494766 
	C125.907898,77.324669 126.431389,75.520874 127.051254,72.983063 
	C127.218201,71.199326 127.288765,70.149612 127.515274,68.820831 
	C127.672134,67.693626 127.673058,66.845482 127.764153,65.615494 
	C127.774017,63.433620 127.693718,61.633572 127.649658,59.424232 
	C127.428101,57.675926 127.170303,56.336910 126.981400,54.746658 
	C127.093460,54.327194 127.136612,54.158966 127.594856,53.993515 
	C129.393936,54.020054 130.777924,54.043819 132.192261,54.479725 
	C132.174072,56.263103 132.125549,57.634346 131.967133,59.411949 
	C131.891129,61.214485 131.925034,62.610657 131.863846,64.416985 
	C131.888031,66.218727 132.007294,67.610306 132.126541,69.001892 
	C132.459976,71.412674 132.793427,73.823456 133.311066,76.925835 
	C134.074219,79.076561 134.653168,80.535698 135.232132,81.994827 
z"/>
<path fill="#EB8702" opacity="1.000000" stroke="none" 
	d="
M221.704376,80.843002 
	C213.142731,80.719429 204.769928,80.305763 196.114594,79.472321 
	C195.660355,78.165260 195.488632,77.277992 195.316925,76.390717 
	C204.087311,72.131935 213.176117,73.962029 222.651627,74.995041 
	C222.684830,76.855247 222.289047,78.704071 221.704376,80.843002 
z"/>
<path fill="#F6D39D" opacity="1.000000" stroke="none" 
	d="
M67.819496,115.653526 
	C66.429863,116.622719 64.841537,117.881584 63.232864,117.908142 
	C52.475025,118.085739 41.712845,118.000702 30.484995,118.001297 
	C30.006983,117.249268 29.996054,116.496834 29.950333,115.369019 
	C30.064850,114.725227 30.209883,114.454536 31.015112,114.067436 
	C36.171761,113.969376 40.670391,114.142601 45.154354,113.958572 
	C49.917240,113.763100 54.666222,113.228790 59.421272,112.842453 
	C62.151310,113.686012 64.881348,114.529564 67.819496,115.653526 
z"/>
<path fill="#F08809" opacity="1.000000" stroke="none" 
	d="
M36.058357,98.149780 
	C31.904413,97.072968 27.750467,95.996155 23.155655,94.851868 
	C24.806196,90.835922 26.897606,86.887444 29.058006,82.608749 
	C29.847136,81.681114 30.567274,81.083702 31.155962,80.595345 
	C33.743645,85.603325 36.259693,90.472679 38.588078,95.675728 
	C37.619724,96.722878 36.839039,97.436325 36.058357,98.149780 
z"/>
<path fill="#EB8702" opacity="1.000000" stroke="none" 
	d="
M64.968071,81.001976 
	C59.003189,81.001228 53.029789,80.813576 47.077293,81.084763 
	C44.414085,81.206108 41.792816,82.247971 38.932915,83.246445 
	C38.013603,81.779480 37.313896,79.938171 36.596024,77.737541 
	C44.813023,77.227226 53.048191,77.076218 61.771545,77.294746 
	C63.162514,78.776840 64.065292,79.889412 64.968071,81.001976 
z"/>
<path fill="#F7CF8F" opacity="1.000000" stroke="none" 
	d="
M228.803772,114.692245 
	C220.072113,115.022942 211.372208,115.065117 202.674362,114.949799 
	C201.180038,114.929985 199.694611,114.239456 198.115540,113.470329 
	C200.461624,111.782356 202.897232,110.482811 205.736038,109.452728 
	C206.936554,110.118034 207.744354,110.875122 208.529541,110.852371 
	C214.639038,110.675308 220.744202,110.348068 226.850693,110.067245 
	C226.850693,110.067245 226.989014,110.008781 227.057739,109.977959 
	C227.696381,111.414925 228.266296,112.882713 228.803772,114.692245 
z"/>
<path fill="#F7CF8F" opacity="1.000000" stroke="none" 
	d="
M59.191040,112.576889 
	C54.666222,113.228790 49.917240,113.763100 45.154354,113.958572 
	C40.670391,114.142601 36.171761,113.969376 31.183332,113.910309 
	C30.830029,112.843971 30.972977,111.820625 31.671522,110.410431 
	C39.189808,109.666023 46.152500,109.308479 53.115189,108.950928 
	C55.063725,110.071068 57.012264,111.191200 59.191040,112.576889 
z"/>
<path fill="#F08809" opacity="1.000000" stroke="none" 
	d="
M235.441757,92.470245 
	C231.437790,92.689011 227.324463,92.553650 223.021439,92.051285 
	C224.166061,88.528877 225.430130,85.339645 226.914841,82.256668 
	C227.123795,81.822769 228.411591,81.908432 229.444351,81.924301 
	C231.569916,85.435364 233.451157,88.775742 235.441757,92.470245 
z"/>
<path fill="#D56F01" opacity="1.000000" stroke="none" 
	d="
M224.155670,66.567825 
	C218.806808,66.461914 213.570801,65.921722 208.296158,64.777245 
	C209.772995,62.755630 211.288467,61.338306 213.259476,59.944565 
	C217.120911,59.643696 220.526810,59.319237 223.932709,58.994774 
	C224.044632,61.374371 224.156570,63.753960 224.155670,66.567825 
z"/>
<path fill="#D56F01" opacity="1.000000" stroke="none" 
	d="
M51.420025,64.759735 
	C46.217365,65.472282 41.014709,66.184830 35.397346,66.950394 
	C34.935043,64.622780 34.887440,62.242138 35.389008,59.430119 
	C38.971802,58.661827 42.005428,58.324917 45.303970,58.181370 
	C47.519268,60.503071 49.469646,62.631405 51.420025,64.759735 
z"/>
<path fill="#F8C87B" opacity="1.000000" stroke="none" 
	d="
M52.909508,108.699585 
	C46.152500,109.308479 39.189808,109.666023 31.789742,110.040573 
	C31.827824,108.580360 32.303284,107.103149 33.399403,105.317390 
	C38.468201,104.976379 42.916348,104.943916 47.364491,104.911446 
	C49.144268,106.090378 50.924046,107.269302 52.909508,108.699585 
z"/>
<path fill="#F6D39D" opacity="1.000000" stroke="none" 
	d="
M119.977570,116.671860 
	C110.785759,116.853477 101.458244,116.762482 92.030731,116.259605 
	C94.676941,114.909256 97.423149,113.970787 100.893326,113.171265 
	C106.713257,116.272614 111.955681,115.353477 117.218307,113.898926 
	C118.092827,114.732368 118.967346,115.565811 119.977570,116.671860 
z"/>
<path fill="#F8C87B" opacity="1.000000" stroke="none" 
	d="
M226.911102,109.703690 
	C220.744202,110.348068 214.639038,110.675308 208.529541,110.852371 
	C207.744354,110.875122 206.936554,110.118034 206.065659,109.351784 
	C207.705246,107.666313 209.418411,106.351257 211.857391,105.140076 
	C217.104523,105.471100 221.625824,105.698242 226.147141,105.925392 
	C226.421921,107.063637 226.696716,108.201889 226.911102,109.703690 
z"/>
<path fill="#F8C267" opacity="1.000000" stroke="none" 
	d="
M226.090775,105.565674 
	C221.625824,105.698242 217.104523,105.471100 212.179352,105.074211 
	C214.573669,101.665680 217.371826,98.426880 220.446716,95.010437 
	C222.493759,98.290512 224.264084,101.748230 226.090775,105.565674 
z"/>
<path fill="#F39E1A" opacity="1.000000" stroke="none" 
	d="
M94.913223,87.335526 
	C99.236267,87.665085 103.548714,88.328690 107.946838,89.311790 
	C107.584274,89.814903 107.136017,89.998505 106.288254,90.345741 
	C109.483177,91.815933 112.440216,93.176666 115.443092,94.558487 
	C113.511292,97.786179 113.511292,97.786179 104.289513,93.741676 
	C104.327232,89.474991 101.332161,89.455460 99.124725,89.207100 
	C98.203384,89.103439 97.087669,90.727417 95.694244,91.614639 
	C95.103050,91.763206 94.877953,91.862999 94.652863,91.962799 
	C94.736115,90.531723 94.819374,89.100647 94.913223,87.335526 
z"/>
<path fill="#F7CF8F" opacity="1.000000" stroke="none" 
	d="
M141.728897,114.938751 
	C143.377335,113.152252 145.025787,111.365746 146.836334,109.287140 
	C149.863983,106.794968 152.083542,108.554466 154.407669,110.121292 
	C156.144104,111.291908 158.005753,112.276817 159.655502,113.770248 
	C153.575882,114.443634 147.652390,114.691193 141.728897,114.938751 
z"/>
<path fill="#F8C267" opacity="1.000000" stroke="none" 
	d="
M47.166481,104.623566 
	C42.916348,104.943916 38.468201,104.976379 33.564903,105.017952 
	C34.010460,102.942284 34.911175,100.857506 35.935127,98.461258 
	C36.839039,97.436325 37.619724,96.722878 38.722458,95.996704 
	C41.685829,98.767883 44.327148,101.551781 47.166481,104.623566 
z"/>
<path fill="#F7CF8F" opacity="1.000000" stroke="none" 
	d="
M117.038437,113.620636 
	C111.955681,115.353477 106.713257,116.272614 101.262718,113.132973 
	C104.370087,111.309189 107.832047,109.662643 111.610657,108.105598 
	C113.571053,109.910843 115.214806,111.626595 117.038437,113.620636 
z"/>
<path fill="#CB6302" opacity="1.000000" stroke="none" 
	d="
M223.986084,58.597008 
	C220.526810,59.319237 217.120911,59.643696 213.401642,59.619736 
	C214.025299,56.857243 214.962326,54.443165 216.377045,52.020260 
	C218.781372,51.954777 220.708023,51.898121 222.634644,51.841469 
	C222.957626,52.737751 223.280609,53.634029 223.770676,54.764885 
	C223.971664,56.066055 224.005569,57.132648 223.986084,58.597008 
z"/>
<path fill="#CB6302" opacity="1.000000" stroke="none" 
	d="
M45.039051,57.988003 
	C42.005428,58.324917 38.971802,58.661827 35.509605,58.998329 
	C35.354183,56.912605 35.627331,54.827297 35.889786,52.352272 
	C35.879089,51.962555 36.115292,51.895950 36.702915,51.907150 
	C39.434364,51.929482 41.578190,51.940613 43.722496,52.345032 
	C44.161671,54.488213 44.600361,56.238106 45.039051,57.988003 
z"/>
<path fill="#F6D39D" opacity="1.000000" stroke="none" 
	d="
M141.542191,115.035896 
	C147.652390,114.691193 153.575882,114.443634 159.915527,114.006012 
	C162.131302,114.333946 163.930893,114.851929 166.005737,115.607773 
	C158.004181,116.054382 149.727402,116.263153 141.157928,116.143372 
	C140.974442,115.548546 141.137848,115.321289 141.542191,115.035896 
z"/>
<path fill="#F08D05" opacity="1.000000" stroke="none" 
	d="
M96.060341,91.565865 
	C97.087669,90.727417 98.203384,89.103439 99.124725,89.207100 
	C101.332161,89.455460 104.327232,89.474991 103.991867,93.541931 
	C101.545647,93.453117 99.104317,92.971497 96.302628,92.740639 
	C95.942268,92.991394 95.984207,93.018311 96.191574,92.663605 
	C96.286079,92.061218 96.173210,91.813538 96.060341,91.565865 
z"/>
<path fill="#EB8702" opacity="1.000000" stroke="none" 
	d="
M36.128231,76.280823 
	C36.356476,76.284927 36.555954,76.544128 36.718735,77.056671 
	C36.487843,77.051979 36.293655,76.793953 36.128231,76.280823 
z"/>
<path fill="#F08809" opacity="1.000000" stroke="none" 
	d="
M22.577908,94.880424 
	C22.716730,95.071678 22.621445,95.393341 22.322903,95.872757 
	C22.194365,95.690620 22.269083,95.350731 22.577908,94.880424 
z"/>
<path fill="#E9E7F9" opacity="1.000000" stroke="none" 
	d="
M132.161911,54.067585 
	C130.777924,54.043819 129.393936,54.020054 127.472153,53.691109 
	C126.620758,52.590366 126.307159,51.794796 126.018265,50.654179 
	C125.470871,48.835701 124.898773,47.362278 124.283661,45.567589 
	C123.637848,44.121452 123.035049,42.996582 122.340965,41.547527 
	C121.282860,39.778889 120.316048,38.334438 119.220825,36.632217 
	C118.745872,35.952732 118.399315,35.531017 118.383789,35.010559 
	C119.526703,33.612923 120.338593,32.314034 121.329994,30.764912 
	C122.029442,29.685410 122.549377,28.856138 123.069321,28.026865 
	C123.319748,27.806932 123.570168,27.587000 124.001663,27.187019 
	C127.484146,26.677544 130.785568,26.348116 134.461182,26.012493 
	C135.359146,26.935011 135.882904,27.863724 136.698212,29.270000 
	C137.538284,30.545874 138.086823,31.344181 138.754471,32.449615 
	C139.516312,33.632004 140.159027,34.507263 140.757446,35.441277 
	C140.713135,35.500031 140.764923,35.637856 140.510895,35.836838 
	C139.440567,37.510933 138.624268,38.986042 137.532715,40.680275 
	C136.710800,42.154789 136.164139,43.410179 135.636887,44.716446 
	C135.656281,44.767326 135.714920,44.675560 135.489899,44.816772 
	C135.208603,45.299725 135.152313,45.641460 134.887146,46.240353 
	C134.469299,47.336132 134.260330,48.174755 133.840179,49.312431 
	C133.361908,51.055882 133.094803,52.500278 132.659058,53.963478 
	C132.490402,53.982285 132.161911,54.067585 132.161911,54.067585 
z"/>
<path fill="#942701" opacity="1.000000" stroke="none" 
	d="
M138.635361,32.142487 
	C138.086823,31.344181 137.538284,30.545874 136.961945,29.452358 
	C139.994843,28.257774 143.039688,26.644550 146.118851,26.576143 
	C164.589294,26.165808 183.068115,26.000818 201.542618,26.086279 
	C203.663666,26.096090 205.775162,28.168131 207.479736,29.640438 
	C189.627853,29.997555 172.184845,29.833271 154.748337,30.097313 
	C149.368240,30.178783 144.005859,31.427965 138.635361,32.142487 
z"/>
<path fill="#9B2D01" opacity="1.000000" stroke="none" 
	d="
M138.754471,32.449615 
	C144.005859,31.427965 149.368240,30.178783 154.748337,30.097313 
	C172.184845,29.833271 189.627853,29.997555 207.537842,29.993889 
	C208.606384,30.018297 209.205444,30.045683 210.250549,30.134222 
	C211.177856,30.928455 211.659119,31.661537 211.817535,32.678574 
	C208.735947,32.975075 205.977203,32.998047 203.218475,32.998497 
	C184.462936,33.001560 165.706680,32.926365 146.952835,33.104313 
	C144.895447,33.123837 142.851791,34.588253 140.801758,35.382523 
	C140.159027,34.507263 139.516312,33.632004 138.754471,32.449615 
z"/>
<path fill="#9B2D01" opacity="1.000000" stroke="none" 
	d="
M121.150482,31.015141 
	C120.338593,32.314034 119.526703,33.612923 118.190567,34.654419 
	C116.154900,33.931236 114.659943,33.141308 113.128815,33.063530 
	C109.312820,32.869694 105.480362,33.005314 101.654526,32.998947 
	C88.432724,32.976936 75.209709,33.045681 61.989761,32.876347 
	C57.153805,32.814404 52.325127,32.183716 47.493130,31.812481 
	C47.566742,31.648344 47.640350,31.484209 47.922935,31.149328 
	C49.195747,30.320551 50.259586,29.662518 52.128895,29.001961 
	C70.314896,28.999733 87.697647,28.844831 105.074654,29.092819 
	C110.441315,29.169407 115.792313,30.343536 121.150482,31.015141 
z"/>
<path fill="#942701" opacity="1.000000" stroke="none" 
	d="
M121.329987,30.764912 
	C115.792313,30.343536 110.441315,29.169407 105.074654,29.092819 
	C87.697647,28.844831 70.314896,28.999733 52.465279,28.997898 
	C54.775135,27.665005 57.527714,25.250654 60.337383,25.182276 
	C75.794022,24.806108 91.270447,24.763521 106.727180,25.138418 
	C111.930061,25.264610 117.095093,26.951639 122.673370,27.976078 
	C122.549377,28.856138 122.029442,29.685410 121.329987,30.764912 
z"/>
<path fill="#AE3F02" opacity="1.000000" stroke="none" 
	d="
M137.807968,40.461151 
	C138.624268,38.986042 139.440567,37.510933 140.790070,36.184345 
	C142.273041,36.554317 143.222870,36.969280 144.172531,36.968922 
	C167.972214,36.959946 191.771896,36.907219 215.571564,36.862213 
	C216.363617,38.023956 217.155670,39.185699 217.786316,41.005501 
	C216.272369,42.108356 214.921082,42.936543 213.567093,42.940983 
	C189.652542,43.019413 165.737411,43.038410 141.823532,42.888996 
	C140.480011,42.880596 139.146271,41.306507 137.807968,40.461151 
z"/>
<path fill="#BC4E02" opacity="1.000000" stroke="none" 
	d="
M134.051346,49.013378 
	C134.260330,48.174755 134.469299,47.336132 135.096039,46.083733 
	C135.580841,45.338490 135.647873,45.007027 135.714920,44.675560 
	C135.714920,44.675560 135.656281,44.767326 136.069733,44.854767 
	C139.577469,45.286983 142.673676,45.931114 145.765671,45.911545 
	C151.451569,45.875565 157.136032,45.216740 162.819168,45.242374 
	C170.411255,45.276611 178.003601,45.978985 185.592102,45.919441 
	C197.071198,45.829376 208.547089,45.329735 220.024338,45.004128 
	C220.869507,47.032063 221.714676,49.059998 222.597244,51.464699 
	C220.708023,51.898121 218.781372,51.954777 216.025116,51.960220 
	C212.792725,51.892372 210.389954,51.875729 207.908966,51.497467 
	C205.217117,50.424110 202.607864,49.114025 199.989151,49.094814 
	C178.010864,48.933598 156.030838,49.009136 134.051346,49.013378 
z"/>
<path fill="#A53601" opacity="1.000000" stroke="none" 
	d="
M215.444916,36.556145 
	C191.771896,36.907219 167.972214,36.959946 144.172531,36.968922 
	C143.222870,36.969280 142.273041,36.554317 141.044098,35.985359 
	C140.764923,35.637856 140.713135,35.500031 140.757446,35.441277 
	C142.851791,34.588253 144.895447,33.123837 146.952835,33.104313 
	C165.706680,32.926365 184.462936,33.001560 203.218475,32.998497 
	C205.977203,32.998047 208.735947,32.975075 211.907990,32.932529 
	C213.320297,34.018383 214.319275,35.134228 215.444916,36.556145 
z"/>
<path fill="#B84902" opacity="1.000000" stroke="none" 
	d="
M220.010635,44.670616 
	C208.547089,45.329735 197.071198,45.829376 185.592102,45.919441 
	C178.003601,45.978985 170.411255,45.276611 162.819168,45.242374 
	C157.136032,45.216740 151.451569,45.875565 145.765671,45.911545 
	C142.673676,45.931114 139.577469,45.286983 136.050323,44.803886 
	C136.164139,43.410179 136.710800,42.154789 137.532715,40.680275 
	C139.146271,41.306507 140.480011,42.880596 141.823532,42.888996 
	C165.737411,43.038410 189.652542,43.019413 213.567093,42.940983 
	C214.921082,42.936543 216.272369,42.108356 217.824249,41.317200 
	C218.681351,42.092918 219.339142,43.215008 220.010635,44.670616 
z"/>
<path fill="#BE5202" opacity="1.000000" stroke="none" 
	d="
M124.326675,45.888855 
	C124.898773,47.362278 125.470871,48.835701 125.550049,50.654236 
	C102.667267,50.999481 80.277168,50.958996 57.887997,51.083885 
	C56.257008,51.092979 54.632706,52.301479 52.605362,52.868713 
	C49.377621,52.507301 46.549820,52.229519 43.722015,51.951744 
	C41.578190,51.940613 39.434364,51.929482 36.821987,51.877518 
	C37.032738,49.686886 37.712040,47.537090 38.950031,45.451416 
	C51.389591,46.010254 63.270237,46.897564 75.151390,46.904461 
	C91.542946,46.913975 107.934898,46.259132 124.326675,45.888855 
z"/>
<path fill="#B84902" opacity="1.000000" stroke="none" 
	d="
M124.283661,45.567589 
	C107.934898,46.259132 91.542946,46.913975 75.151390,46.904461 
	C63.270237,46.897564 51.389591,46.010254 39.221466,45.201256 
	C39.392891,43.695084 39.851562,42.503193 41.008076,41.192173 
	C43.323273,41.381683 44.940468,41.957966 46.558002,41.958912 
	C71.849396,41.973656 97.140823,41.914124 122.432251,41.871712 
	C123.035049,42.996582 123.637848,44.121452 124.283661,45.567589 
z"/>
<path fill="#AE3F02" opacity="1.000000" stroke="none" 
	d="
M122.340965,41.547523 
	C97.140823,41.914124 71.849396,41.973656 46.558002,41.958912 
	C44.940468,41.957966 43.323273,41.381683 41.281021,41.013512 
	C41.491844,39.782383 42.127556,38.610786 43.469879,37.217422 
	C69.234062,36.960434 94.291649,36.925209 119.349228,36.889984 
	C120.316048,38.334438 121.282860,39.778889 122.340965,41.547523 
z"/>
<path fill="#A53601" opacity="1.000000" stroke="none" 
	d="
M119.220825,36.632217 
	C94.291649,36.925209 69.234062,36.960434 43.726303,36.998589 
	C44.498291,35.362385 45.720459,33.723259 47.217876,31.948305 
	C52.325127,32.183716 57.153805,32.814404 61.989761,32.876347 
	C75.209709,33.045681 88.432724,32.976936 101.654526,32.998947 
	C105.480362,33.005314 109.312820,32.869694 113.128815,33.063530 
	C114.659943,33.141308 116.154900,33.931236 117.859543,34.753166 
	C118.399315,35.531017 118.745872,35.952732 119.220825,36.632217 
z"/>
<path fill="#F4E7DA" opacity="1.000000" stroke="none" 
	d="
M128.994781,136.998962 
	C129.270920,137.107071 129.547058,137.215164 130.331207,137.215103 
	C132.956726,137.404831 135.073166,137.952103 137.191895,137.961105 
	C153.912109,138.032211 170.633469,138.089554 187.352905,137.954819 
	C193.635529,137.904175 199.914749,137.056549 206.194122,137.073975 
	C213.473038,137.094162 220.750412,137.666412 228.028458,137.999008 
	C227.610550,139.618378 227.192627,141.237732 226.208893,142.740875 
	C224.857788,142.420090 224.072784,142.038101 223.287170,142.036804 
	C201.895447,142.001434 180.503281,141.952530 159.112534,142.100082 
	C157.374023,142.112091 155.645111,143.512711 153.474319,144.226166 
	C150.690765,144.109650 148.344604,144.035049 145.919144,143.588104 
	C141.608414,142.748779 137.386383,142.015427 133.143768,141.865768 
	C121.300835,141.448029 109.450287,141.137482 97.600883,141.056213 
	C91.490417,141.014282 85.374016,141.815033 79.263741,141.769897 
	C65.998161,141.671951 52.735497,141.217728 39.469852,141.052612 
	C37.029396,141.022232 34.580517,141.668396 32.135525,142.002274 
	C31.807064,141.529068 31.478601,141.055862 31.536327,140.233902 
	C34.417950,139.256973 36.910789,138.094772 39.409206,138.082657 
	C66.493660,137.951370 93.579056,138.029602 120.663948,137.956787 
	C123.441727,137.949326 126.217873,137.332840 128.994781,136.998962 
z"/>
<path fill="#F8F8FB" opacity="1.000000" stroke="none" 
	d="
M215.959579,162.378342 
	C212.313568,165.902832 208.667557,169.427322 204.252991,173.003922 
	C199.557129,172.786636 195.628311,172.274170 191.702820,172.298615 
	C183.614960,172.348953 175.519836,172.987488 167.446915,172.744598 
	C164.548035,172.657379 161.704468,170.730499 158.889221,169.345184 
	C159.339966,168.131851 159.737167,167.216553 160.381195,166.091736 
	C161.222931,164.517914 161.817841,163.153641 162.864471,161.819580 
	C165.934464,161.566544 168.549362,161.079681 171.171555,161.036713 
	C180.458969,160.884491 189.753220,160.689941 199.036209,160.897995 
	C204.685547,161.024612 210.319000,161.860855 215.959579,162.378342 
z"/>
<path fill="#F4F3F4" opacity="1.000000" stroke="none" 
	d="
M216.214417,162.219391 
	C210.319000,161.860855 204.685547,161.024612 199.036209,160.897995 
	C189.753220,160.689941 180.458969,160.884491 171.171555,161.036713 
	C168.549362,161.079681 165.934464,161.566544 162.901764,161.416595 
	C162.528564,159.653366 162.569809,158.323364 162.679184,156.637558 
	C162.498230,154.854507 162.249146,153.427261 162.468689,152.000183 
	C173.010147,152.000443 183.082977,152.000580 193.155792,152.000534 
	C201.127884,152.000488 209.101059,151.930847 217.071198,152.055664 
	C218.764511,152.082199 220.446716,152.817291 222.134033,153.225937 
	C220.245789,156.170776 218.357529,159.115616 216.214417,162.219391 
z"/>
<path fill="#FDFDFB" opacity="1.000000" stroke="none" 
	d="
M158.835663,169.643188 
	C161.704468,170.730499 164.548035,172.657379 167.446915,172.744598 
	C175.519836,172.987488 183.614960,172.348953 191.702820,172.298615 
	C195.628311,172.274170 199.557129,172.786636 203.939133,173.093262 
	C187.125580,185.185715 168.794159,188.120392 149.123535,179.019318 
	C151.470734,176.330582 153.818680,174.195862 156.439819,171.927780 
	C157.420547,171.077347 158.128098,170.360275 158.835663,169.643188 
z"/>
<path fill="#F4DCBA" opacity="1.000000" stroke="none" 
	d="
M133.870758,126.955528 
	C134.401855,125.446304 134.932968,123.937073 135.980392,122.523804 
	C138.715118,123.079636 140.938339,123.958672 143.151138,123.933113 
	C160.927521,123.727722 178.701218,123.162689 196.477188,123.097145 
	C207.540222,123.056351 218.605728,123.692238 229.670135,124.024429 
	C229.705246,125.176460 229.740356,126.328506 229.139786,127.769295 
	C199.224869,128.038589 169.945572,128.042068 140.666550,127.954750 
	C138.400314,127.947990 136.135971,127.303574 133.870758,126.955528 
z"/>
<path fill="#F4E2CD" opacity="1.000000" stroke="none" 
	d="
M131.032104,133.995758 
	C131.272491,133.188080 131.512878,132.380386 132.358063,131.285309 
	C165.026962,130.994202 197.091080,130.990509 229.155182,130.986816 
	C229.035660,132.603073 228.916138,134.219315 228.315796,135.821503 
	C226.068741,135.538300 224.303787,135.046158 222.536041,135.035995 
	C210.552643,134.967117 198.568390,135.043350 186.585022,134.972702 
	C183.138947,134.952393 179.696472,134.471161 176.249496,134.427826 
	C161.177612,134.238342 146.104660,134.132172 131.032104,133.995758 
z"/>
<path fill="#F3EDEA" opacity="1.000000" stroke="none" 
	d="
M222.408752,152.997711 
	C220.446716,152.817291 218.764511,152.082199 217.071198,152.055664 
	C209.101059,151.930847 201.127884,152.000488 193.155792,152.000534 
	C183.082977,152.000580 173.010147,152.000443 162.248428,151.779633 
	C160.976776,150.495285 160.394028,149.431717 160.034485,148.023224 
	C162.264923,147.119080 164.279327,146.061172 166.278015,146.090118 
	C173.521057,146.195007 180.760803,146.974442 187.998093,146.927399 
	C200.309708,146.847427 212.618500,146.334015 224.928482,146.002731 
	C224.180145,148.258316 223.431808,150.513885 222.408752,152.997711 
z"/>
<path fill="#F5D9AF" opacity="1.000000" stroke="none" 
	d="
M229.740967,123.687500 
	C218.605728,123.692238 207.540222,123.056351 196.477188,123.097145 
	C178.701218,123.162689 160.927521,123.727722 143.151138,123.933113 
	C140.938339,123.958672 138.715118,123.079636 136.256180,122.320953 
	C136.505966,121.126923 136.996292,120.231705 137.737854,119.162575 
	C139.711151,119.325676 141.432037,119.948242 143.155502,119.955513 
	C160.437943,120.028374 177.720825,120.001335 195.003571,119.999901 
	C206.079422,119.998985 217.155273,119.993820 228.718964,119.980804 
	C229.408478,121.097565 229.610138,122.224075 229.740967,123.687500 
z"/>
<path fill="#EF8103" opacity="1.000000" stroke="none" 
	d="
M156.166626,172.061142 
	C153.818680,174.195862 151.470734,176.330582 148.890823,178.724854 
	C148.290726,178.989059 147.922592,178.993729 147.278473,179.007324 
	C145.895782,178.349762 144.778336,177.089600 143.684128,177.109482 
	C133.790695,177.289230 123.901154,177.688385 114.011261,178.045166 
	C113.532806,178.062439 113.061737,178.284470 112.293411,178.708771 
	C111.769547,179.021362 111.539505,179.036316 110.708221,178.911072 
	C108.402992,177.185806 106.699020,175.600708 105.085136,173.617935 
	C106.833191,172.813522 108.472252,172.189270 110.152863,172.043167 
	C114.258545,171.686279 118.385864,171.325409 122.500183,171.369125 
	C133.723511,171.488373 144.944626,171.816040 156.166626,172.061142 
z"/>
<path fill="#F4EAE0" opacity="1.000000" stroke="none" 
	d="
M225.062866,145.718384 
	C212.618500,146.334015 200.309708,146.847427 187.998093,146.927399 
	C180.760803,146.974442 173.521057,146.195007 166.278015,146.090118 
	C164.279327,146.061172 162.264923,147.119080 159.737030,147.868774 
	C157.448151,146.795547 155.679932,145.531815 153.911728,144.268097 
	C155.645111,143.512711 157.374023,142.112091 159.112534,142.100082 
	C180.503281,141.952530 201.895447,142.001434 223.287170,142.036804 
	C224.072784,142.038101 224.857788,142.420090 225.925964,142.966629 
	C225.871658,144.017075 225.534454,144.725555 225.062866,145.718384 
z"/>
<path fill="#F4DFC3" opacity="1.000000" stroke="none" 
	d="
M229.261337,130.640686 
	C197.091080,130.990509 165.026962,130.994202 132.497787,130.995148 
	C132.481064,129.784622 132.929413,128.576828 133.624268,127.162277 
	C136.135971,127.303574 138.400314,127.947990 140.666550,127.954750 
	C169.945572,128.042068 199.224869,128.038589 229.017670,128.094269 
	C229.476669,128.851852 229.422073,129.573212 229.261337,130.640686 
z"/>
<path fill="#F4E5D3" opacity="1.000000" stroke="none" 
	d="
M130.897827,134.288330 
	C146.104660,134.132172 161.177612,134.238342 176.249496,134.427826 
	C179.696472,134.471161 183.138947,134.952393 186.585022,134.972702 
	C198.568390,135.043350 210.552643,134.967117 222.536041,135.035995 
	C224.303787,135.046158 226.068741,135.538300 228.131531,136.183075 
	C228.382919,136.892395 228.337784,137.226074 228.160553,137.779388 
	C220.750412,137.666412 213.473038,137.094162 206.194122,137.073975 
	C199.914749,137.056549 193.635529,137.904175 187.352905,137.954819 
	C170.633469,138.089554 153.912109,138.032211 137.191895,137.961105 
	C135.073166,137.952103 132.956726,137.404831 130.425201,137.052399 
	C130.261963,136.192200 130.512756,135.386551 130.897827,134.288330 
z"/>
<path fill="#F8F8FB" opacity="1.000000" stroke="none" 
	d="
M54.552425,173.144501 
	C50.836658,169.755356 47.120888,166.366241 43.733990,162.550842 
	C46.486591,161.749725 48.915493,161.022049 51.333199,161.057526 
	C66.497101,161.279984 81.658516,161.672485 96.968803,162.262360 
	C97.426064,163.007187 97.735268,163.498398 98.050438,164.341415 
	C99.397964,167.120255 100.739532,169.547287 101.607414,171.982315 
	C90.360039,171.993561 79.584587,171.883911 68.813461,172.051819 
	C64.055260,172.125992 59.305836,172.763000 54.552425,173.144501 
z"/>
<path fill="#F4EAE0" opacity="1.000000" stroke="none" 
	d="
M32.124443,142.349365 
	C34.580517,141.668396 37.029396,141.022232 39.469852,141.052612 
	C52.735497,141.217728 65.998161,141.671951 79.263741,141.769897 
	C85.374016,141.815033 91.490417,141.014282 97.600883,141.056213 
	C109.450287,141.137482 121.300835,141.448029 133.143768,141.865768 
	C137.386383,142.015427 141.608414,142.748779 145.630005,143.766647 
	C143.614166,145.214798 141.808136,146.112045 139.910934,146.612228 
	C133.108231,145.988892 126.397087,145.743118 119.683701,145.611130 
	C119.428749,145.606110 119.152168,146.701416 118.553040,147.123993 
	C111.038979,142.282104 106.112579,142.688644 99.038612,148.139511 
	C97.414711,147.165543 95.978157,146.101013 94.526665,146.080246 
	C84.349106,145.934677 74.168419,145.988358 63.988834,146.016724 
	C61.416264,146.023895 58.843666,146.250900 56.271805,146.237473 
	C48.568031,146.197235 40.864616,146.088013 33.161064,146.005737 
	C32.811829,144.902634 32.462597,143.799545 32.124443,142.349365 
z"/>
<path fill="#FDFDFB" opacity="1.000000" stroke="none" 
	d="
M54.770378,173.432114 
	C59.305836,172.763000 64.055260,172.125992 68.813461,172.051819 
	C79.584587,171.883911 90.360039,171.993561 101.891678,172.083801 
	C103.431427,172.790039 104.213234,173.402832 104.995041,174.015610 
	C106.699020,175.600708 108.402992,177.185806 110.364716,178.950821 
	C94.621719,187.258072 78.700516,185.329651 62.910866,178.562500 
	C60.095341,177.355820 57.620487,175.354248 54.770378,173.432114 
z"/>
<path fill="#F3EDEA" opacity="1.000000" stroke="none" 
	d="
M33.189552,146.352356 
	C40.864616,146.088013 48.568031,146.197235 56.271805,146.237473 
	C58.843666,146.250900 61.416264,146.023895 63.988834,146.016724 
	C74.168419,145.988358 84.349106,145.934677 94.526665,146.080246 
	C95.978157,146.101013 97.414711,147.165543 98.840111,148.373688 
	C98.111237,150.646652 97.400444,152.292923 96.183975,153.955978 
	C88.908943,153.648117 82.140602,153.101242 75.369888,153.070160 
	C70.097656,153.045929 64.823578,153.899155 59.548267,153.923798 
	C55.106842,153.944550 50.630844,152.874985 46.231522,153.178284 
	C43.686188,153.353760 41.262283,155.290604 38.783730,156.434753 
	C36.928505,153.189499 35.073273,149.944229 33.189552,146.352356 
z"/>
<path fill="#F4F3F4" opacity="1.000000" stroke="none" 
	d="
M38.865482,156.741882 
	C41.262283,155.290604 43.686188,153.353760 46.231522,153.178284 
	C50.630844,152.874985 55.106842,153.944550 59.548267,153.923798 
	C64.823578,153.899155 70.097656,153.045929 75.369888,153.070160 
	C82.140602,153.101242 88.908943,153.648117 96.200180,154.217407 
	C96.741432,154.977234 96.760826,155.492432 96.631477,156.418182 
	C96.595406,158.555405 96.708084,160.282074 96.820755,162.008728 
	C81.658516,161.672485 66.497101,161.279984 51.333199,161.057526 
	C48.915493,161.022049 46.486591,161.749725 43.581169,162.222473 
	C41.715393,160.563232 40.331314,158.806137 38.865482,156.741882 
z"/>
<path fill="#F5DBB6" opacity="1.000000" stroke="none" 
	d="
M29.537569,122.179291 
	C59.809921,121.935112 89.914375,121.969582 120.018845,121.979294 
	C120.826126,121.979553 121.633492,121.711876 122.737625,121.268143 
	C123.679237,122.078331 124.324043,123.189529 124.706589,124.933510 
	C111.227715,125.710663 98.011406,125.915886 84.794411,125.982933 
	C70.467346,126.055611 56.139030,126.072311 41.812580,125.953796 
	C37.692787,125.919724 33.577557,125.333717 29.460236,125.000771 
	C29.430050,124.152039 29.399862,123.303314 29.537569,122.179291 
z"/>
<path fill="#F4E2CD" opacity="1.000000" stroke="none" 
	d="
M127.120636,130.958801 
	C127.432724,132.060135 127.744804,133.161453 127.590050,134.629181 
	C116.091644,135.168991 105.060280,135.356232 94.028458,135.512100 
	C82.359840,135.676971 70.691055,135.837280 59.021866,135.952103 
	C49.548683,136.045334 40.074810,136.068329 30.601240,136.122467 
	C30.382189,134.983429 30.163137,133.844406 30.390812,132.344604 
	C32.451248,131.691284 34.072720,131.112747 35.677315,131.156281 
	C42.220676,131.333786 48.757381,131.912003 55.299263,131.958435 
	C72.400352,132.079788 89.503700,132.095917 106.604431,131.951706 
	C113.445473,131.893997 120.282036,131.305618 127.120636,130.958801 
z"/>
<path fill="#F4DCBA" opacity="1.000000" stroke="none" 
	d="
M29.363876,125.329163 
	C33.577557,125.333717 37.692787,125.919724 41.812580,125.953796 
	C56.139030,126.072311 70.467346,126.055611 84.794411,125.982933 
	C98.011406,125.915886 111.227715,125.710663 124.739868,125.263092 
	C125.653816,126.082634 126.272224,127.205383 126.446945,128.661392 
	C93.929176,128.991455 61.855091,128.988266 29.781010,128.985062 
	C29.609846,127.875893 29.438681,126.766724 29.363876,125.329163 
z"/>
<path fill="#F4DFC3" opacity="1.000000" stroke="none" 
	d="
M29.743547,129.365189 
	C61.855091,128.988266 93.929176,128.991455 126.463654,128.991150 
	C126.968361,129.425934 127.012680,129.864197 127.088821,130.630630 
	C120.282036,131.305618 113.445473,131.893997 106.604431,131.951706 
	C89.503700,132.095917 72.400352,132.079788 55.299263,131.958435 
	C48.757381,131.912003 42.220676,131.333786 35.677315,131.156281 
	C34.072720,131.112747 32.451248,131.691284 30.435642,131.992950 
	C29.924528,131.249817 29.815308,130.497574 29.743547,129.365189 
z"/>
<path fill="#F4E5D3" opacity="1.000000" stroke="none" 
	d="
M30.631298,136.514252 
	C40.074810,136.068329 49.548683,136.045334 59.021866,135.952103 
	C70.691055,135.837280 82.359840,135.676971 94.028458,135.512100 
	C105.060280,135.356232 116.091644,135.168991 127.600197,134.990891 
	C128.371979,135.461304 128.666763,135.936386 128.978180,136.705200 
	C126.217873,137.332840 123.441727,137.949326 120.663948,137.956787 
	C93.579056,138.029602 66.493660,137.951370 39.409206,138.082657 
	C36.910789,138.094772 34.417950,139.256973 31.548557,139.945374 
	C31.003515,138.972412 30.832436,137.939224 30.631298,136.514252 
z"/>
<path fill="#1A1006" opacity="1.000000" stroke="none" 
	d="
M195.102692,76.488091 
	C195.488632,77.277992 195.660355,78.165260 195.664825,79.395264 
	C188.835358,85.503227 188.707397,86.812744 194.622803,92.046188 
	C196.926682,93.492828 198.926559,94.781303 200.886368,96.128090 
	C201.026855,96.224632 200.874359,96.747559 200.780548,98.618790 
	C196.680313,96.918465 193.044449,95.410713 188.942291,93.709595 
	C186.525970,95.890228 183.798950,99.604301 178.199722,97.579842 
	C181.765411,94.432465 184.965210,91.608055 188.291016,88.450653 
	C186.611679,85.395554 184.806320,82.673447 182.618195,79.544586 
	C183.115692,78.626678 183.947006,77.814194 184.885605,77.661621 
	C187.562103,77.226532 190.282257,77.060020 192.985245,76.787857 
	C193.619644,76.720390 194.254044,76.652924 195.102692,76.488091 
z"/>
<path fill="#1A1006" opacity="1.000000" stroke="none" 
	d="
M65.182068,81.283035 
	C64.065292,79.889412 63.162514,78.776840 62.194817,77.354614 
	C67.153145,77.454071 72.176399,77.863197 77.275543,78.647644 
	C75.602005,80.791176 73.852570,82.559380 72.020447,84.654381 
	C68.433205,89.786919 73.530327,90.685150 75.603027,92.873268 
	C77.151115,94.507584 78.961021,95.893906 80.654343,97.390656 
	C80.151657,98.042641 79.648972,98.694626 79.146286,99.346619 
	C75.890785,97.427422 72.635284,95.508232 69.208862,93.488281 
	C66.199791,95.637688 63.263660,99.565384 57.178707,96.567719 
	C60.098049,94.748161 62.227997,93.420616 64.976501,91.967468 
	C65.823418,91.548019 66.051781,91.254158 66.280136,90.960304 
	C66.280136,90.960304 66.701210,90.813889 66.835648,90.635773 
	C70.183006,86.613159 69.884850,84.928513 65.182068,81.283035 
z"/>
<path fill="#F28F02" opacity="1.000000" stroke="none" 
	d="
M66.028336,91.033760 
	C66.051781,91.254158 65.823418,91.548019 65.309097,91.824005 
	C65.274269,91.573166 65.525398,91.340187 66.028336,91.033760 
z"/>
<path fill="#F6F5F9" opacity="1.000000" stroke="none" 
	d="
M95.694244,91.614639 
	C96.173210,91.813538 96.286079,92.061218 96.214592,92.673172 
	C95.659904,92.883720 95.289574,92.729988 94.786057,92.269531 
	C94.877953,91.862999 95.103050,91.763206 95.694244,91.614639 
z"/>
<path fill="#EB8702" opacity="1.000000" stroke="none" 
	d="
M192.910110,76.448624 
	C190.282257,77.060020 187.562103,77.226532 184.885605,77.661621 
	C183.947006,77.814194 183.115692,78.626678 182.284454,79.489777 
	C178.883408,80.280304 175.444000,80.891045 171.980011,81.106476 
	C168.850876,81.301079 165.691360,80.945702 162.551361,81.039024 
	C153.733597,81.301086 144.919022,81.669548 135.667664,81.995438 
	C134.653168,80.535698 134.074219,79.076561 133.472900,77.303024 
	C134.886810,76.011284 136.304642,74.227806 137.762558,74.194420 
	C144.522781,74.039635 151.293457,74.417435 158.061676,74.515976 
	C167.724289,74.656662 177.389511,74.653740 187.049988,74.872498 
	C188.986649,74.916351 190.907074,75.678452 192.910110,76.448624 
z"/>
<path fill="#D56F01" opacity="1.000000" stroke="none" 
	d="
M199.180206,66.902390 
	C191.571732,66.935226 183.963242,66.968056 175.778412,66.773697 
	C173.988144,64.403503 172.774200,62.260506 172.018494,60.078209 
	C181.750168,59.716507 191.023636,59.394108 200.201752,59.425636 
	C199.797684,62.153843 199.488937,64.528122 199.180206,66.902390 
z"/>
<path fill="#0B0602" opacity="1.000000" stroke="none" 
	d="
M171.560257,60.117516 
	C172.774200,62.260506 173.988144,64.403503 175.386810,66.815575 
	C174.348907,67.971634 173.006622,69.731529 171.925873,69.583374 
	C168.564041,69.122520 165.301361,67.938202 161.474030,66.684181 
	C159.684433,65.200806 158.421051,64.067757 157.076553,62.596928 
	C156.268570,60.844101 155.541718,59.429058 155.009933,57.670219 
	C161.346176,54.216969 166.449554,57.188747 171.560257,60.117516 
z"/>
<path fill="#0B0602" opacity="1.000000" stroke="none" 
	d="
M199.557037,66.857559 
	C199.488937,64.528122 199.797684,62.153843 200.456879,59.249748 
	C201.683502,57.537354 202.559677,56.354774 203.710815,55.035179 
	C205.319580,53.885136 206.653381,52.872116 207.987183,51.859093 
	C210.389954,51.875729 212.792725,51.892372 215.547424,51.969048 
	C214.962326,54.443165 214.025299,56.857243 212.946106,59.596149 
	C211.288467,61.338306 209.772995,62.755630 208.088974,64.432144 
	C205.258240,65.398460 202.596054,66.105591 199.557037,66.857559 
z"/>
<path fill="#DC7601" opacity="1.000000" stroke="none" 
	d="
M157.157684,62.934708 
	C158.421051,64.067757 159.684433,65.200806 161.124451,66.603790 
	C154.436295,67.249352 147.568924,67.584488 140.708023,68.021347 
	C138.110443,68.186745 135.527786,68.586792 132.532440,68.940887 
	C132.007294,67.610306 131.888031,66.218727 132.335327,64.414665 
	C140.987152,63.646358 149.072418,63.290531 157.157684,62.934708 
z"/>
<path fill="#0B0602" opacity="1.000000" stroke="none" 
	d="
M85.404839,69.779610 
	C84.537064,69.122070 84.073486,68.401390 83.713280,67.064598 
	C83.977615,65.804482 84.138588,65.160484 84.550873,64.290298 
	C85.823524,62.690140 86.844872,61.316151 88.172852,59.834908 
	C89.649689,58.781052 90.819885,57.834454 92.395798,56.953712 
	C96.419350,57.157742 100.037186,57.295910 103.590813,57.686745 
	C103.425026,58.632618 103.323456,59.325825 103.077484,60.316597 
	C102.300774,61.767231 101.668465,62.920296 100.754295,64.205658 
	C99.569389,65.192635 98.666336,66.047318 97.418777,66.975922 
	C94.681007,67.943962 92.287750,68.838074 89.894493,69.732185 
	C88.532677,69.726944 87.170860,69.721710 85.404839,69.779610 
z"/>
<path fill="#E27E02" opacity="1.000000" stroke="none" 
	d="
M90.114548,70.073288 
	C92.287750,68.838074 94.681007,67.943962 97.858490,67.014725 
	C102.038239,67.319740 105.427872,67.743912 108.830544,67.981674 
	C115.002716,68.412964 121.182648,68.733261 127.359329,69.099892 
	C127.288765,70.149612 127.218201,71.199326 127.017326,72.624115 
	C117.044159,72.666214 107.197166,72.417816 97.361412,71.938866 
	C95.000000,71.823875 92.675880,70.943024 90.114548,70.073288 
z"/>
<path fill="#0B0602" opacity="1.000000" stroke="none" 
	d="
M43.722496,52.345028 
	C46.549820,52.229519 49.377621,52.507301 52.837177,53.097046 
	C54.924904,54.713230 56.380878,56.017452 57.866371,57.590172 
	C58.214684,58.255291 58.533478,58.651920 58.918114,59.388863 
	C59.435997,60.513214 59.888031,61.297253 60.333603,62.305321 
	C60.399914,62.860020 60.601730,63.061485 60.912357,63.104378 
	C60.892128,63.075008 60.852688,63.135166 60.851101,63.512165 
	C60.757236,64.874161 60.664959,65.859154 60.572681,66.844147 
	C57.746742,66.212173 54.920803,65.580200 51.757446,64.853989 
	C49.469646,62.631405 47.519268,60.503071 45.303970,58.181370 
	C44.600361,56.238106 44.161671,54.488213 43.722496,52.345028 
z"/>
<path fill="#DC7601" opacity="1.000000" stroke="none" 
	d="
M61.024994,66.897156 
	C60.664959,65.859154 60.757236,64.874161 61.330788,63.469910 
	C67.697365,63.034306 73.585632,62.910213 79.466049,63.071651 
	C81.089226,63.116219 82.689034,64.011520 84.299568,64.516479 
	C84.138588,65.160484 83.977615,65.804482 83.648956,66.736031 
	C76.146614,66.999107 68.811958,66.974632 61.024994,66.897156 
z"/>
<path fill="#CB6302" opacity="1.000000" stroke="none" 
	d="
M203.435837,55.172195 
	C202.559677,56.354774 201.683502,57.537354 200.552216,58.895821 
	C191.023636,59.394108 181.750168,59.716507 172.018494,60.078209 
	C166.449554,57.188747 161.346176,54.216969 154.572754,57.666458 
	C146.652664,58.339527 139.364853,58.672554 132.077042,59.005585 
	C132.125549,57.634346 132.174072,56.263103 132.192261,54.479725 
	C132.161911,54.067585 132.490402,53.982285 133.115997,53.979687 
	C140.501266,53.653954 147.262054,53.051693 154.020340,53.078762 
	C162.355087,53.112137 170.686951,53.692875 179.022064,53.977985 
	C180.499115,54.028511 181.996979,53.620232 183.466507,53.714836 
	C190.126617,54.143593 196.780014,54.676670 203.435837,55.172195 
z"/>
<path fill="#C55B01" opacity="1.000000" stroke="none" 
	d="
M57.836853,57.321674 
	C56.380878,56.017452 54.924904,54.713230 53.237114,53.180679 
	C54.632706,52.301479 56.257008,51.092979 57.887997,51.083885 
	C80.277168,50.958996 102.667267,50.999481 125.525345,50.999290 
	C126.307159,51.794796 126.620758,52.590366 127.057060,53.688335 
	C127.136612,54.158966 127.093460,54.327194 126.572495,54.804813 
	C120.412560,55.408924 114.723335,55.612152 109.052391,56.051243 
	C107.228516,56.192455 105.452782,56.955513 103.655029,57.434082 
	C100.037186,57.295910 96.419350,57.157742 92.296936,56.566727 
	C91.436775,55.794640 91.083763,55.199688 90.725197,55.196323 
	C80.651917,55.101643 70.577415,55.008270 60.505474,55.122482 
	C59.607735,55.132664 58.726013,56.555126 57.836853,57.321674 
z"/>
<path fill="#D56F01" opacity="1.000000" stroke="none" 
	d="
M101.036148,64.073357 
	C101.668465,62.920296 102.300774,61.767231 103.530319,60.311348 
	C111.956177,59.950191 119.784790,59.891861 127.613411,59.833527 
	C127.693718,61.633572 127.774017,63.433620 127.375092,65.613258 
	C119.983650,65.661491 113.068871,65.374039 106.161064,64.967796 
	C104.441177,64.866661 102.743843,64.381828 101.036148,64.073357 
z"/>
<path fill="#D56F01" opacity="1.000000" stroke="none" 
	d="
M131.967133,59.411949 
	C139.364853,58.672554 146.652664,58.339527 154.377655,58.010254 
	C155.541718,59.429058 156.268570,60.844101 157.076553,62.596924 
	C149.072418,63.290531 140.987152,63.646358 132.430405,64.004509 
	C131.925034,62.610657 131.891129,61.214485 131.967133,59.411949 
z"/>
<path fill="#CB6302" opacity="1.000000" stroke="none" 
	d="
M127.649658,59.424232 
	C119.784790,59.891861 111.956177,59.950191 103.674721,60.013779 
	C103.323456,59.325825 103.425026,58.632618 103.590813,57.686749 
	C105.452782,56.955513 107.228516,56.192455 109.052391,56.051243 
	C114.723335,55.612152 120.412560,55.408924 126.503593,55.056046 
	C127.170303,56.336910 127.428101,57.675926 127.649658,59.424232 
z"/>
<path fill="#DC7601" opacity="1.000000" stroke="none" 
	d="
M100.754295,64.205658 
	C102.743843,64.381828 104.441177,64.866661 106.161064,64.967796 
	C113.068871,65.374039 119.983650,65.661491 127.284920,65.995087 
	C127.673058,66.845482 127.672134,67.693626 127.515274,68.820831 
	C121.182648,68.733261 115.002716,68.412964 108.830544,67.981674 
	C105.427872,67.743912 102.038239,67.319740 98.203003,66.940804 
	C98.666336,66.047318 99.569389,65.192635 100.754295,64.205658 
z"/>
<path fill="#C35801" opacity="1.000000" stroke="none" 
	d="
M203.710815,55.035175 
	C196.780014,54.676670 190.126617,54.143593 183.466507,53.714836 
	C181.996979,53.620232 180.499115,54.028511 179.022064,53.977985 
	C170.686951,53.692875 162.355087,53.112137 154.020340,53.078762 
	C147.262054,53.051693 140.501266,53.653954 133.284637,53.960884 
	C133.094803,52.500278 133.361908,51.055882 133.840179,49.312431 
	C156.030838,49.009136 178.010864,48.933598 199.989151,49.094814 
	C202.607864,49.114025 205.217117,50.424110 207.908966,51.497467 
	C206.653381,52.872116 205.319580,53.885136 203.710815,55.035175 
z"/>
<path fill="#B84902" opacity="1.000000" stroke="none" 
	d="
M135.489899,44.816772 
	C135.647873,45.007027 135.580841,45.338490 135.304901,45.826576 
	C135.152313,45.641460 135.208603,45.299725 135.489899,44.816772 
z"/>
<path fill="#E06805" opacity="1.000000" stroke="none" 
	d="
M140.002121,147.009277 
	C141.808136,146.112045 143.614166,145.214798 145.709320,144.139008 
	C148.344604,144.035049 150.690765,144.109650 153.474319,144.226166 
	C155.679932,145.531815 157.448151,146.795547 159.513809,148.213715 
	C160.394028,149.431717 160.976776,150.495285 161.779785,151.779434 
	C162.249146,153.427261 162.498230,154.854507 162.236664,156.638748 
	C152.995056,157.285217 144.264084,157.574707 135.607834,157.477997 
	C137.122406,153.730957 138.562256,150.370117 140.002121,147.009277 
z"/>
<path fill="#EB7904" opacity="1.000000" stroke="none" 
	d="
M105.085136,173.617935 
	C104.213234,173.402832 103.431427,172.790039 102.365356,172.075775 
	C100.739532,169.547287 99.397964,167.120255 98.516113,164.344482 
	C108.022926,163.652802 117.070030,163.309875 126.411522,163.125916 
	C127.649170,164.271881 128.592422,165.258865 129.641129,166.356186 
	C130.881027,165.027267 131.851913,163.986664 133.220749,163.108032 
	C140.651199,163.513351 147.693542,163.613480 154.709534,164.096588 
	C156.559647,164.223969 158.328308,165.534195 160.134369,166.301254 
	C159.737167,167.216553 159.339966,168.131851 158.889206,169.345169 
	C158.128098,170.360275 157.420547,171.077347 156.439819,171.927780 
	C144.944626,171.816040 133.723511,171.488373 122.500183,171.369125 
	C118.385864,171.325409 114.258545,171.686279 110.152863,172.043167 
	C108.472252,172.189270 106.833191,172.813522 105.085136,173.617935 
z"/>
<path fill="#E67004" opacity="1.000000" stroke="none" 
	d="
M160.381195,166.091736 
	C158.328308,165.534195 156.559647,164.223969 154.709534,164.096588 
	C147.693542,163.613480 140.651199,163.513351 133.264374,162.777649 
	C133.784424,160.811600 134.658768,159.337891 135.533127,157.864197 
	C144.264084,157.574707 152.995056,157.285217 162.168549,156.994537 
	C162.569809,158.323364 162.528564,159.653366 162.450027,161.386368 
	C161.817841,163.153641 161.222931,164.517914 160.381195,166.091736 
z"/>
<path fill="#E67004" opacity="1.000000" stroke="none" 
	d="
M126.117134,162.966949 
	C117.070030,163.309875 108.022926,163.652802 98.510147,163.992661 
	C97.735268,163.498398 97.426064,163.007187 96.968811,162.262360 
	C96.708084,160.282074 96.595406,158.555405 97.117142,156.416000 
	C106.134850,156.002731 114.518143,156.002182 123.075928,156.311752 
	C124.205978,158.736893 125.161552,160.851913 126.117134,162.966949 
z"/>
<path fill="#F3EDEA" opacity="1.000000" stroke="none" 
	d="
M126.411522,163.125916 
	C125.161552,160.851913 124.205978,158.736893 123.098518,155.945068 
	C121.592979,152.606842 120.239326,149.945419 118.885666,147.283981 
	C119.152168,146.701416 119.428749,145.606110 119.683701,145.611130 
	C126.397087,145.743118 133.108231,145.988892 139.910934,146.612228 
	C138.562256,150.370117 137.122406,153.730957 135.607834,157.477997 
	C134.658768,159.337891 133.784424,160.811600 132.866425,162.615692 
	C131.851913,163.986664 130.881027,165.027267 129.641129,166.356186 
	C128.592422,165.258865 127.649170,164.271881 126.411522,163.125916 
z"/>
<path fill="#E06805" opacity="1.000000" stroke="none" 
	d="
M118.553040,147.123993 
	C120.239326,149.945419 121.592979,152.606842 122.924042,155.634949 
	C114.518143,156.002182 106.134850,156.002731 97.265884,156.005447 
	C96.760826,155.492432 96.741432,154.977234 96.705849,154.200607 
	C97.400444,152.292923 98.111237,150.646652 99.020538,148.766205 
	C106.112579,142.688644 111.038979,142.282104 118.553040,147.123993 
z"/>
<path fill="#CB6302" opacity="1.000000" stroke="none" 
	d="
M57.866371,57.590172 
	C58.726013,56.555126 59.607735,55.132664 60.505474,55.122482 
	C70.577415,55.008270 80.651917,55.101643 90.725197,55.196323 
	C91.083763,55.199688 91.436775,55.794640 91.891228,56.500862 
	C90.819885,57.834454 89.649689,58.781052 87.799225,59.671707 
	C77.696724,59.426693 68.274498,59.237621 58.852268,59.048550 
	C58.533478,58.651920 58.214684,58.255291 57.866371,57.590172 
z"/>
<path fill="#D56F01" opacity="1.000000" stroke="none" 
	d="
M58.918114,59.388863 
	C68.274498,59.237621 77.696724,59.426693 87.492584,59.778969 
	C86.844872,61.316151 85.823524,62.690140 84.550873,64.290298 
	C82.689034,64.011520 81.089226,63.116219 79.466049,63.071651 
	C73.585632,62.910213 67.697365,63.034306 61.332375,63.092911 
	C60.852688,63.135166 60.892128,63.075008 60.869297,62.899956 
	C60.747551,62.455364 60.578751,62.240829 60.340065,62.081291 
	C59.888031,61.297253 59.435997,60.513214 58.918114,59.388863 
z"/>
<path fill="#DC7601" opacity="1.000000" stroke="none" 
	d="
M60.333603,62.305321 
	C60.578751,62.240829 60.747551,62.455364 60.889526,62.929329 
	C60.601730,63.061485 60.399914,62.860020 60.333603,62.305321 
z"/>
</svg>